<svg width="41" height="41" viewBox="0 0 41 41" fill="none" xmlns="http://www.w3.org/2000/svg">
<path fill-rule="evenodd" clip-rule="evenodd" d="M0 20.5C0 31.8218 9.17816 41 20.5 41C31.8218 41 41 31.8218 41 20.5C41 9.17816 31.8218 0 20.5 0C9.17816 0 0 9.17816 0 20.5ZM28.0607 11.9393C27.4749 11.3536 26.5251 11.3536 25.9393 11.9393L19.3939 18.4848L17.9393 19.9393L16.8787 21L17.9393 22.0607L19.3939 23.5152L25.9393 30.0607C26.5251 30.6464 27.4749 30.6464 28.0607 30.0607C28.6464 29.4749 28.6464 28.5251 28.0607 27.9393L21.5152 21.3939L21.1213 21L21.5152 20.6061L28.0607 14.0607C28.6464 13.4749 28.6464 12.5251 28.0607 11.9393ZM15 12.5C15 11.6716 14.3284 11 13.5 11C12.6716 11 12 11.6716 12 12.5V29.5C12 30.3284 12.6716 31 13.5 31C14.3284 31 15 30.3284 15 29.5V12.5Z" fill="white"/>
</svg>
