<svg width="41" height="41" viewBox="0 0 41 41" fill="none" xmlns="http://www.w3.org/2000/svg">
<path fill-rule="evenodd" clip-rule="evenodd" d="M41 20.5C41 31.8218 31.8218 41 20.5 41C9.17816 41 0 31.8218 0 20.5C0 9.17816 9.17816 0 20.5 0C31.8218 0 41 9.17816 41 20.5ZM12.9393 11.9393C13.5251 11.3536 14.4749 11.3536 15.0607 11.9393L21.6061 18.4848L23.0607 19.9393L24.1213 21L23.0607 22.0607L21.6061 23.5152L15.0607 30.0607C14.4749 30.6464 13.5251 30.6464 12.9393 30.0607C12.3536 29.4749 12.3536 28.5251 12.9393 27.9393L19.4848 21.3939L19.8787 21L19.4848 20.6061L12.9393 14.0607C12.3536 13.4749 12.3536 12.5251 12.9393 11.9393ZM26 12.5C26 11.6716 26.6716 11 27.5 11C28.3284 11 29 11.6716 29 12.5V29.5C29 30.3284 28.3284 31 27.5 31C26.6716 31 26 30.3284 26 29.5V12.5Z" fill="white"/>
</svg>
