<svg width="29" height="29" viewBox="0 0 29 29" fill="none" xmlns="http://www.w3.org/2000/svg">
<path fill-rule="evenodd" clip-rule="evenodd" d="M29 14.5C29 22.5081 22.5081 29 14.5 29C6.49187 29 0 22.5081 0 14.5C0 6.49187 6.49187 0 14.5 0C22.5081 0 29 6.49187 29 14.5ZM7.52529 17.6826H6.36562C4.41242 17.6826 2.82904 16.0992 2.82904 14.146C2.82904 12.1928 4.41242 10.6094 6.36562 10.6094H7.52529L11.8271 7.36984C13.1451 6.37731 15.0303 7.31758 15.0303 8.96748V19.3245C15.0303 20.9744 13.1451 21.9147 11.8271 20.9221L7.52529 17.6826ZM17.7074 10.2928C18.0979 9.90233 18.7311 9.90236 19.1216 10.2929L21.0355 12.207L22.9494 10.293C23.3399 9.90241 23.9731 9.90239 24.3636 10.2929C24.7542 10.6834 24.7542 11.3166 24.3637 11.7071L22.4497 13.6213L24.7782 15.95C25.1687 16.3405 25.1687 16.9737 24.7782 17.3642C24.3876 17.7547 23.7545 17.7547 23.364 17.3641L21.0355 15.0355L18.7071 17.3642C18.3166 17.7547 17.6834 17.7548 17.2929 17.3643C16.9023 16.9737 16.9023 16.3406 17.2928 15.95L19.6214 13.6213L17.7073 11.7071C17.3168 11.3165 17.3168 10.6833 17.7074 10.2928Z" fill="white"/>
</svg>
