<svg width="58" height="58" viewBox="0 0 58 58" fill="none" xmlns="http://www.w3.org/2000/svg">
<path fill-rule="evenodd" clip-rule="evenodd" d="M58 29C58 45.0163 45.0163 58 29 58C12.9837 58 0 45.0163 0 29C0 12.9837 12.9837 0 29 0C45.0163 0 58 12.9837 58 29ZM21.5 14C22.8807 14 24 15.1193 24 16.5L24 41.5C24 42.8807 22.8807 44 21.5 44C20.1193 44 19 42.8807 19 41.5L19 16.5C19 15.1193 20.1193 14 21.5 14ZM39 16.5C39 15.1193 37.8807 14 36.5 14C35.1193 14 34 15.1193 34 16.5V41.5C34 42.8807 35.1193 44 36.5 44C37.8807 44 39 42.8807 39 41.5V16.5Z" fill="white"/>
</svg>
