<svg width="41" height="41" viewBox="0 0 41 41" fill="none" xmlns="http://www.w3.org/2000/svg">
<path fill-rule="evenodd" clip-rule="evenodd" d="M20.5 41C31.8218 41 41 31.8218 41 20.5C41 9.17816 31.8218 0 20.5 0C9.17816 0 0 9.17816 0 20.5C0 31.8218 9.17816 41 20.5 41ZM8 25H10.6395L18.0469 30.5782C19.3648 31.5707 21.25 30.6305 21.25 28.9806V11.0194C21.25 9.36954 19.3648 8.42926 18.0469 9.42178L10.6395 15H8C5.79086 15 4 16.7909 4 19V21C4 23.2091 5.79086 25 8 25ZM25.5 20C25.5 18.2672 24.9046 16.829 24.0765 16.182C23.4237 15.672 23.308 14.7294 23.818 14.0765C24.328 13.4237 25.2706 13.3079 25.9235 13.818C27.7621 15.2544 28.5 17.7745 28.5 20C28.5 22.2255 27.7621 24.7456 25.9235 26.182C25.2706 26.6921 24.328 26.5763 23.818 25.9235C23.308 25.2706 23.4237 24.328 24.0765 23.818C24.9046 23.171 25.5 21.7328 25.5 20ZM30.0397 13.1523C31.5544 14.4146 32.5 17.0502 32.5 20C32.5 22.9498 31.5544 25.5854 30.0397 26.8477C29.4033 27.378 29.3173 28.3239 29.8477 28.9603C30.378 29.5967 31.3239 29.6827 31.9603 29.1523C34.4456 27.0812 35.5 23.3836 35.5 20C35.5 16.6164 34.4456 12.9188 31.9603 10.8477C31.3239 10.3173 30.378 10.4033 29.8477 11.0397C29.3173 11.6761 29.4033 12.622 30.0397 13.1523Z" fill="white"/>
</svg>
